# xmcd
#
# Track frame offsets:
#	150
#	13347
#	27902
#	41717
#	56637
#	73190
#	85515
#	101367
#	112435
#	126642
#	140280
#	154317
#
# Disc length: 2268 seconds
#
# Revision: 1
# Processed by: cddbd v1.4PL0 Copyright (c) Steve Scherf et al.
# Submitted via: audiograbber 1.80.04
#
DISCID=af08da0c
DTITLE=Various Artist - Legends of the West/Under the Western Sky
DYEAR=1900
DGENRE=Other
TTITLE0=Gene Autry - Sioux City Sue
TTITLE1=Ernest Tubb - Walkin' the Floor Over You
TTITLE2=Hank Williams, Sr. - I'm So Lonesome I Could Cry
TTITLE3=Bob Wills - Take Me Back to Tulsa
TTITLE4=Hank Williams, Sr. - Honky Tonk Blues
TTITLE5=Marty Robbins - Big Iron
TTITLE6=W.Jennings - W.Nelson
TTITLE7=Johnny Cash - I Walk the Line
TTITLE8=Willie Nelson - My Heroes Have Always Been Cowboys
TTITLE9=Marty Robbins - Ballad of Jesse James
TTITLE10=Tex Ritter - Along the Navajo Trail
TTITLE11=Marty Robbins - Strawberry Roan
EXTD=
EXTT0=
EXTT1=
EXTT2=
EXTT3=
EXTT4=
EXTT5=
EXTT6=
EXTT7=
EXTT8=
EXTT9=
EXTT10=
EXTT11=
PLAYORDER=
